<svg id="Layer_2" data-name="Layer 2" xmlns="http://www.w3.org/2000/svg" viewBox="0 0 37.13 37.13"><defs><style>.cls-1{fill:#55c8e7;}</style></defs><title>new_folder</title><path class="cls-1" d="M611.24,114.49c0.14-.33.26-0.67,0.42-1a4.19,4.19,0,0,1,3.9-2.49c2.39,0,4.78,0,7.16,0a4.26,4.26,0,0,1,4.3,3.94,3.39,3.39,0,0,0,.09.36h15.33a4.33,4.33,0,0,1,4.27,2.38,4.49,4.49,0,0,1,.46,1.88c0,3.7,0,7.41,0,11.11a2.42,2.42,0,0,1,0,.3c-0.89-.51-1.76-1-2.59-1.5a1,1,0,0,1-.22-0.7c0-2.83,0-5.65,0-8.48,0-1.69-.43-2.13-2.1-2.13h-26c-1.64,0-2.09.45-2.09,2.07q0,8.77,0,17.54c0,1.57.46,2,2.06,2h12.53l0.38,2.87h-0.89c-3.8,0-7.6-.07-11.4,0-2.76.07-4.75-.83-5.56-3.63V114.49Z" transform="translate(-611.24 -110.98)"/><path class="cls-1" d="M631.69,139.78a8.34,8.34,0,1,1,8.37,8.34A8.31,8.31,0,0,1,631.69,139.78Zm6.87-1.43h-2.79v2.91h2.81V144h2.93v-2.8h2.79v-2.91h-2.82V135.5h-2.92v2.85Z" transform="translate(-611.24 -110.98)"/></svg>