<svg id="Layer_2" data-name="Layer 2" xmlns="http://www.w3.org/2000/svg" viewBox="0 0 27.13 26.74"><defs><style>.cls-1{fill:#55c8e7;}</style></defs><title>search</title><path class="cls-1" d="M959.67,120.35a7.14,7.14,0,0,0,7.73,7.3,5.38,5.38,0,0,1-6.26,0A5.45,5.45,0,0,1,959.67,120.35Z" transform="translate(-954.95 -113)"/><path class="cls-1" d="M981.86,137.89l-9.17-8.73-0.2-.19a9.84,9.84,0,1,0-15.91-.7,9.44,9.44,0,0,0,5.28,4,9.71,9.71,0,0,0,9-1.66l0.39,0.37,0.36,0.38h0l8.65,8.23a0.72,0.72,0,0,0,1,0l0.59-.62A0.72,0.72,0,0,0,981.86,137.89Zm-17-7a8,8,0,1,1,8-8A8,8,0,0,1,964.82,130.84Z" transform="translate(-954.95 -113)"/></svg>