<svg id="Layer_1" data-name="Layer 1" xmlns="http://www.w3.org/2000/svg" viewBox="0 0 30.39 28.05"><title>shareblack</title><path d="M359.19,479.75c0.06-.25.11-0.5,0.17-0.75a5.18,5.18,0,0,1,2-3,5,5,0,0,1,3.06-1c1.5,0,3,0,4.51,0a0.6,0.6,0,0,1,.69.68,0.48,0.48,0,0,1-.32.44l-1.77.72a0.58,0.58,0,0,0-.13.06,2.7,2.7,0,0,1-1.86.45c-0.45,0-.91,0-1.36,0a2.89,2.89,0,0,0-2.66,2.58c0,0.29,0,.58,0,0.87q0,7.23,0,14.47a3,3,0,0,0,.72,2.08,3,3,0,0,0,2.36,1h14.9a3,3,0,0,0,3.06-3.05c0-1.21,0-2.41,0-3.62A0.8,0.8,0,0,1,383,491a8.13,8.13,0,0,0,.91-0.64,0.58,0.58,0,0,1,.93.36,1.53,1.53,0,0,1,0,.27c0,1.46,0,2.91,0,4.37a5.19,5.19,0,0,1-1.5,3.84,4.94,4.94,0,0,1-3.15,1.55c-0.32,0-.65,0-1,0H364.61a5.28,5.28,0,0,1-5.36-4.47c0-.08,0-0.16-0.06-0.23Q359.19,487.9,359.19,479.75Z" transform="translate(-359.19 -472.72)"/><path d="M377.76,477.39H380a0.2,0.2,0,0,0,.25-0.25c0-1,0-2.09,0-3.13a1.14,1.14,0,0,1,1-1.28,1.25,1.25,0,0,1,1.12.46l3.7,3.7,3.18,3.19a1.13,1.13,0,0,1,0,1.62L384.93,486c-0.91.91-1.83,1.83-2.75,2.74A1,1,0,0,1,381,489a1,1,0,0,1-.76-1c0-.15,0-0.31,0-0.46,0-1,0-1.94,0-2.91,0-.21-0.05-0.28-0.27-0.27-1.46,0-2.93,0-4.39.07a12.72,12.72,0,0,0-3.17.52,6.19,6.19,0,0,0-3.19,1.92,6.37,6.37,0,0,0-1.24,2.86,17.18,17.18,0,0,0,0,5.55,0.6,0.6,0,0,1-1.11.44,22.81,22.81,0,0,1-2.16-4.08,11.45,11.45,0,0,1-.7-5.83,9.55,9.55,0,0,1,1.06-3.53,7.56,7.56,0,0,1,2.25-2.53,12.6,12.6,0,0,1,5.34-2A31.34,31.34,0,0,1,377.76,477.39Z" transform="translate(-359.19 -472.72)"/></svg>