<svg id="Layer_1" data-name="Layer 1" xmlns="http://www.w3.org/2000/svg" viewBox="0 0 33.8 31.19"><defs><style>.cls-1{fill:#55c8e7;}</style></defs><title>share</title><path class="cls-1" d="M659.7,120.48c0.06-.28.12-0.56,0.19-0.84a5.76,5.76,0,0,1,2.28-3.3,5.58,5.58,0,0,1,3.41-1.09c1.67,0,3.35,0,5,0a0.67,0.67,0,0,1,.76.76,0.53,0.53,0,0,1-.36.49c-0.66.26-1.31,0.53-2,.8a0.64,0.64,0,0,0-.15.07,3,3,0,0,1-2.07.5c-0.5,0-1,0-1.51,0a3.21,3.21,0,0,0-3,2.87c0,0.32,0,.65,0,1q0,8,0,16.09a3.31,3.31,0,0,0,.8,2.31,3.34,3.34,0,0,0,2.63,1.14H682.3a3.3,3.3,0,0,0,3.41-3.4c0-1.34,0-2.68,0-4a0.89,0.89,0,0,1,.53-0.88,9,9,0,0,0,1-.71,0.64,0.64,0,0,1,1,.4,1.71,1.71,0,0,1,0,.3c0,1.62,0,3.24,0,4.86a5.77,5.77,0,0,1-1.66,4.27,5.5,5.5,0,0,1-3.5,1.72c-0.36,0-.72,0-1.08,0H665.73a5.88,5.88,0,0,1-6-5c0-.09,0-0.17-0.06-0.26Q659.7,129.55,659.7,120.48Z" transform="translate(-659.7 -112.66)"/><path class="cls-1" d="M680.35,117.86c0.83,0,1.66,0,2.48,0a0.22,0.22,0,0,0,.27-0.27c0-1.16,0-2.32,0-3.48a1.27,1.27,0,0,1,1.13-1.43,1.39,1.39,0,0,1,1.24.51l4.11,4.11,3.54,3.55a1.26,1.26,0,0,1,0,1.8l-4.8,4.8c-1,1-2,2-3.05,3a1.16,1.16,0,0,1-1.3.27,1.14,1.14,0,0,1-.85-1.07c0-.17,0-0.34,0-0.51,0-1.08,0-2.16,0-3.24,0-.23-0.06-0.31-0.3-0.3-1.63,0-3.26,0-4.88.08a14.15,14.15,0,0,0-3.53.58,6.88,6.88,0,0,0-3.54,2.14,7.08,7.08,0,0,0-1.38,3.18,19.1,19.1,0,0,0,0,6.17,0.66,0.66,0,0,1-1.23.49,25.36,25.36,0,0,1-2.4-4.54,12.73,12.73,0,0,1-.78-6.48,10.62,10.62,0,0,1,1.18-3.92,8.4,8.4,0,0,1,2.51-2.81,14,14,0,0,1,5.93-2.26A34.85,34.85,0,0,1,680.35,117.86Z" transform="translate(-659.7 -112.66)"/></svg>