<svg id="Layer_1" data-name="Layer 1" xmlns="http://www.w3.org/2000/svg" viewBox="0 0 25.16 28.1"><title>trashblack</title><path d="M373.89,454.87H357.56a2.68,2.68,0,0,1-1.92-3c0.06-4.75,0-9.5,0-14.24v-0.81h20.12v0.81c0,4.75,0,9.5,0,14.24A2.68,2.68,0,0,1,373.89,454.87ZM359.2,440.71V451h1.52V440.71H359.2Zm5.75,0v10.25h1.53V440.7H365Zm5.78,0V451h1.52V440.71h-1.52Z" transform="translate(-353.14 -426.77)"/><path d="M378.3,430v5.09H353.14V430h7.93c0-.34,0-0.59,0-0.83,0-.79.07-1.59,0.1-2.38h9.1l0.16,3.21h7.87Z" transform="translate(-353.14 -426.77)"/></svg>