<svg id="Layer_1" data-name="Layer 1" xmlns="http://www.w3.org/2000/svg" viewBox="0 0 28.96 32.35"><defs><style>.cls-1{fill:#55c8e7;}</style></defs><title>trash</title><path class="cls-1" d="M726.5,145.06H707.7c-1.65-.55-2.23-1.7-2.21-3.41,0.07-5.46,0-10.93,0-16.4v-0.94h23.16v0.94c0,5.47,0,10.93,0,16.4C728.72,143.37,728.14,144.51,726.5,145.06Zm-16.9-16.3v11.8h1.75v-11.8h-1.75Zm6.62,0v11.79H718V128.75h-1.76Zm6.65,0v11.8h1.75v-11.8h-1.75Z" transform="translate(-702.62 -112.71)"/><path class="cls-1" d="M731.58,116.41v5.85h-29v-5.85h9.13c0-.4,0-0.68,0-1,0-.91.08-1.83,0.11-2.74h10.48l0.18,3.7h9.06Z" transform="translate(-702.62 -112.71)"/></svg>