<svg id="Layer_2" data-name="Layer 2" xmlns="http://www.w3.org/2000/svg" viewBox="0 0 27.33 31.88"><defs><style>.cls-1{fill:#55c8e7;}</style></defs><title>upload</title><path class="cls-1" d="M598.89,128.08c0,4.07,0,8.14,0,12.21a3.62,3.62,0,0,1-1,2.67,3.32,3.32,0,0,1-2.48,1.05H575a3.4,3.4,0,0,1-3.43-3.48q0-9.89,0-19.79a2.26,2.26,0,0,1,.74-1.76c2.07-2,4.12-4,6.17-6.06a2.63,2.63,0,0,1,1.95-.79h14.95a3.4,3.4,0,0,1,3.52,3.52q0,6.21,0,12.42h0ZM575,122.37c0,0.14,0,.22,0,0.31q0,8.69,0,17.37c0,0.49.08,0.57,0.58,0.57h19.29c0.59,0,.65-0.06.65-0.65q0-11.89,0-23.78c0-.61,0-0.66-0.67-0.66h-13c0,0.16,0,.29,0,0.42,0,1.38,0,2.75,0,4.13a2.26,2.26,0,0,1-2.28,2.29H575Z" transform="translate(-571.56 -112.14)"/><path class="cls-1" d="M587.49,128.06c0,1.62,0,3.19,0,4.75a0.79,0.79,0,0,1-.94.94h-2.74a0.75,0.75,0,0,1-.85-0.86q0-2.21,0-4.41v-0.43h-2.3a2.46,2.46,0,0,1-.57,0,0.76,0.76,0,0,1-.48-0.26,0.61,0.61,0,0,1,.12-0.53c0.69-.83,1.42-1.63,2.13-2.44l2.87-3.26c0.38-.43.61-0.44,1,0l5,5.63a0.51,0.51,0,0,1,.19.6,0.56,0.56,0,0,1-.6.28h-2.77Z" transform="translate(-571.56 -112.14)"/><path class="cls-1" d="M580.66,136h9.14c0-.37,0-0.72,0-1.08a1.13,1.13,0,1,1,2.25,0q0,1.07,0,2.13a1.13,1.13,0,0,1-1.21,1.2H579.6a1.12,1.12,0,0,1-1.19-1.18q0-1.09,0-2.17a1.13,1.13,0,1,1,2.25,0C580.66,135.32,580.66,135.66,580.66,136Z" transform="translate(-571.56 -112.14)"/></svg>